
<svg version="1.1" viewBox="0 0 79 79" style="enable-background:new 0 0 79 79;">
<style type="text/css">
	.st0{fill:#022326;}
	.st1{fill:#3DF0F0;}
	.st2{fill:#CCFBFF;stroke:#CCFBFF;stroke-width:2;stroke-miterlimit:10;}
</style>
<g id="Lag_2">
	<rect x="0" y="0" class="st0" width="79" height="79"/>
</g>
<g id="Lag_3">
	<g>
		<path class="st1" d="M75,4v71H4V4H75 M79,0H0v79h79V0L79,0z"/>
	</g>
	<g>
		<path class="st2" d="M21.2,57.2V21.5h4.2v31.9h15.7v3.8H21.2z"/>
		<path class="st2" d="M58.8,30c1.2,0,2.3,0.1,3.2,0.3L61.4,34c-1.1-0.2-2.1-0.4-2.9-0.4c-2.2,0-4,0.9-5.6,2.6s-2.3,3.9-2.3,6.6
			v14.4h-4.1V30.5h3.3l0.5,5h0.2c1-1.7,2.2-3.1,3.6-4C55.6,30.4,57.1,30,58.8,30z"/>
	</g>
</g>
</svg>
