<svg class="typewriter__caret" viewBox="469.607 109.077 84.786 808.142">
  <path d="M 904 476 L 120 476 C 115.6 476 112 479.6 112 484 L 112 540 C 112 544.4 115.6 548 120 548 L 904 548 C 908.4 548 912 544.4 912 540 L 912 484 C 912 479.6 908.4 476 904 476 Z" transform="matrix(0, -0.999997, 1.000003, 0, -0.00148, 1023.998559)" style="fill: rgba(255, 255, 255, 0.863);"/>
</svg>






<svg class="wave-1" style="transform:rotate(0deg); transition: 0.3s" viewBox="0 0 1440 290" version="1.1" xmlns="http://www.w3.org/2000/svg"><defs><linearGradient id="sw-gradient-0" x1="0" x2="0" y1="1" y2="0"><stop stop-color="rgba(243, 106, 62, 1)" offset="0%"></stop><stop stop-color="rgba(255, 179, 11, 1)" offset="100%"></stop></linearGradient></defs><path style="transform:translate(0, 0px); opacity:1" fill="url(#sw-gradient-0)" d="M0,203L60,169.2C120,135,240,68,360,43.5C480,19,600,39,720,77.3C840,116,960,174,1080,183.7C1200,193,1320,155,1440,135.3C1560,116,1680,116,1800,135.3C1920,155,2040,193,2160,188.5C2280,184,2400,135,2520,101.5C2640,68,2760,48,2880,33.8C3000,19,3120,10,3240,48.3C3360,87,3480,174,3600,188.5C3720,203,3840,145,3960,120.8C4080,97,4200,106,4320,130.5C4440,155,4560,193,4680,203C4800,213,4920,193,5040,178.8C5160,164,5280,155,5400,159.5C5520,164,5640,184,5760,159.5C5880,135,6000,68,6120,77.3C6240,87,6360,174,6480,198.2C6600,222,6720,184,6840,145C6960,106,7080,68,7200,82.2C7320,97,7440,164,7560,198.2C7680,232,7800,232,7920,217.5C8040,203,8160,174,8280,174C8400,174,8520,203,8580,217.5L8640,232L8640,290L8580,290C8520,290,8400,290,8280,290C8160,290,8040,290,7920,290C7800,290,7680,290,7560,290C7440,290,7320,290,7200,290C7080,290,6960,290,6840,290C6720,290,6600,290,6480,290C6360,290,6240,290,6120,290C6000,290,5880,290,5760,290C5640,290,5520,290,5400,290C5280,290,5160,290,5040,290C4920,290,4800,290,4680,290C4560,290,4440,290,4320,290C4200,290,4080,290,3960,290C3840,290,3720,290,3600,290C3480,290,3360,290,3240,290C3120,290,3000,290,2880,290C2760,290,2640,290,2520,290C2400,290,2280,290,2160,290C2040,290,1920,290,1800,290C1680,290,1560,290,1440,290C1320,290,1200,290,1080,290C960,290,840,290,720,290C600,290,480,290,360,290C240,290,120,290,60,290L0,290Z"></path></svg>